<svg xmlns="http://www.w3.org/2000/svg" width="612.697" height="150.914" viewBox="0 0 612.697 150.914">
  <g id="Layer_2" data-name="Layer 2" transform="translate(0)">
    <g id="Layer_1" data-name="Layer 1">
      <line id="Line_47" data-name="Line 47" x2="19.28" y2="61.08" transform="translate(40.73 12.72)" fill="none" stroke="#fff" stroke-miterlimit="10" stroke-width="6.33"/>
      <circle id="Ellipse_131" data-name="Ellipse 131" cx="10.47" cy="10.47" r="10.47" transform="translate(29.77 0)" fill="#f06724"/>
      <path id="Path_30149" data-name="Path 30149" d="M108.17,74.66c0-21.27-14.9-38.52-33.28-38.52S41.61,53.39,41.61,74.66" fill="none" stroke="#f16623" stroke-miterlimit="10" stroke-width="6.34"/>
      <path id="Path_30150" data-name="Path 30150" d="M148.83,74.8A72.83,72.83,0,0,1,14.41,113.68a74.191,74.191,0,0,1-4.06-7.3A72.63,72.63,0,0,1,3.17,74.8Z" fill="none" stroke="#f16623" stroke-miterlimit="10" stroke-width="6.34"/>
      <line id="Line_48" data-name="Line 48" x2="10.69" y2="33.87" transform="translate(64.53 87.91)" fill="none" stroke="#fff" stroke-miterlimit="10" stroke-width="6.33"/>
      <g id="Group_2832" data-name="Group 2832" opacity="0.25">
        <rect id="Rectangle_2408" data-name="Rectangle 2408" width="22.06" height="6.24" rx="3.12" transform="translate(126.77 74.66)" fill="#ea7926"/>
        <rect id="Rectangle_2409" data-name="Rectangle 2409" width="22.06" height="6.24" rx="3.12" transform="translate(97.07 74.66)" fill="#ea7926"/>
        <rect id="Rectangle_2410" data-name="Rectangle 2410" width="22.06" height="6.24" rx="3.12" transform="translate(97.07 94.27)" fill="#ea7926"/>
        <rect id="Rectangle_2411" data-name="Rectangle 2411" width="22.06" height="6.24" rx="3.12" transform="translate(97.07 113.88)" fill="#ea7926"/>
        <rect id="Rectangle_2412" data-name="Rectangle 2412" width="22.06" height="6.24" rx="3.12" transform="translate(82.21 84.47)" fill="#ea7926"/>
        <path id="Path_30151" data-name="Path 30151" d="M118,134.22a71.444,71.444,0,0,1-9.08,5.5h-8.76a3.12,3.12,0,1,1,0-6.24H116A3.11,3.11,0,0,1,118,134.22Z" fill="#ea7926"/>
        <rect id="Rectangle_2413" data-name="Rectangle 2413" width="22.06" height="6.24" rx="3.12" transform="translate(111.92 84.47)" fill="#ea7926"/>
        <path id="Path_30152" data-name="Path 30152" d="M129.91,123.68a72.391,72.391,0,0,1-6.39,6.24H115a3.12,3.12,0,1,1,0-6.24Z" fill="#ea7926"/>
        <rect id="Rectangle_2414" data-name="Rectangle 2414" width="22.06" height="6.24" rx="3.12" transform="translate(82.21 123.68)" fill="#ea7926"/>
        <path id="Path_30153" data-name="Path 30153" d="M100.72,143.28a72.22,72.22,0,0,1-18.36,4.06,2.89,2.89,0,0,1-.15-.94,3.12,3.12,0,0,1,3.12-3.12Z" fill="#ea7926"/>
        <path id="Path_30154" data-name="Path 30154" d="M148.17,84.49c-.28,2.1-.65,4.18-1.11,6.22h-2.32a3.12,3.12,0,0,1,0-6.24h3a2.359,2.359,0,0,1,.43.02Z" fill="#ea7926"/>
        <path id="Path_30155" data-name="Path 30155" d="M146.11,94.45c-.06.22-.12.44-.19.66s-.13.45-.2.67-.16.53-.24.8-.25.78-.38,1.17c-.22.65-.44,1.3-.68,1.94l-.3.82H129.89a3.12,3.12,0,0,1,0-6.24h15.25A3.09,3.09,0,0,1,146.11,94.45Z" fill="#ea7926"/>
        <path id="Path_30156" data-name="Path 30156" d="M137.41,113.88a72.6,72.6,0,0,1-4.46,6.23h-3.06a3.12,3.12,0,1,1,0-6.23Z" fill="#ea7926"/>
        <rect id="Rectangle_2415" data-name="Rectangle 2415" width="22.06" height="6.24" rx="3.12" transform="translate(111.92 104.07)" fill="#ea7926"/>
        <rect id="Rectangle_2416" data-name="Rectangle 2416" width="22.06" height="6.24" rx="3.12" transform="translate(82.21 104.08)" fill="#ea7926"/>
      </g>
      <line id="Line_49" data-name="Line 49" x1="26.18" y2="82.89" transform="translate(82.88 12.72)" fill="none" stroke="#fff" stroke-miterlimit="10" stroke-width="6.33"/>
      <circle id="Ellipse_132" data-name="Ellipse 132" cx="10.47" cy="10.47" r="10.47" transform="translate(99.07 0)" fill="#f06724"/>
      <path id="Path_30157" data-name="Path 30157" d="M220.62,40.05A35.2,35.2,0,0,1,234.94,54a40.65,40.65,0,0,1,5,20.27,41.09,41.09,0,0,1-5,20.28,36.1,36.1,0,0,1-14.32,14.2A43.82,43.82,0,0,1,199,113.91H166.09V35H199a45,45,0,0,1,21.62,5.05ZM210,87.29q4.91-4.58,4.91-13t-4.91-13q-4.89-4.57-13.25-4.57h-5.91v35.2h5.91Q205.09,91.85,210,87.29Z" fill="#f06724"/>
      <path id="Path_30158" data-name="Path 30158" d="M271.37,35v78.87H246.63V35Z" fill="#f06724"/>
      <path id="Path_30159" data-name="Path 30159" d="M334.81,40.05A35.18,35.18,0,0,1,349.12,54a40.55,40.55,0,0,1,5,20.27,41,41,0,0,1-5,20.28,36.07,36.07,0,0,1-14.31,14.2,43.86,43.86,0,0,1-21.67,5.18H280.28V35h32.86a45,45,0,0,1,21.67,5.05ZM324.17,87.29q4.9-4.58,4.9-13t-4.9-13q-4.91-4.57-13.26-4.57H305v35.2h5.9Q319.27,91.85,324.17,87.29Z" fill="#f06724"/>
      <path id="Path_30160" data-name="Path 30160" d="M372.85,112a23,23,0,0,1-9.8-7.74,19.64,19.64,0,0,1-3.57-11.7h13.59a12.32,12.32,0,0,0,4,8.25q3.51,3.23,9.86,3.23,6.57,0,10.25-3.18a10.3,10.3,0,0,0,3.67-8.19,9,9,0,0,0-2.28-6.35,15.31,15.31,0,0,0-5.68-3.78,86.441,86.441,0,0,0-9.42-2.9,87.943,87.943,0,0,1-12.31-4.07,20.39,20.39,0,0,1-8.07-6.4q-3.35-4.35-3.34-11.59a20.56,20.56,0,0,1,3.34-11.69,21.31,21.31,0,0,1,9.36-7.69,34,34,0,0,1,13.92-2.68q11.25,0,18.44,5.63t8,15.43h-14a10.19,10.19,0,0,0-4-7.24q-3.68-3-9.7-3a13.72,13.72,0,0,0-8.91,2.79c-2.3,1.85-3.45,4.53-3.45,8A8.16,8.16,0,0,0,374.8,63a15.51,15.51,0,0,0,5.52,3.62,85.561,85.561,0,0,0,9.13,2.89A95.4,95.4,0,0,1,402,73.7a20.92,20.92,0,0,1,8.25,6.51c2.26,2.94,3.39,6.85,3.39,11.76a21.11,21.11,0,0,1-3.17,11.14,23,23,0,0,1-9.25,8.41,30.57,30.57,0,0,1-14.31,3.17A34.68,34.68,0,0,1,372.85,112Z" fill="#fff"/>
      <path id="Path_30161" data-name="Path 30161" d="M466.26,54.53A21.43,21.43,0,0,1,475,63.45a29.69,29.69,0,0,1,3.17,14.26v36.2H465.54V79.6q0-8.25-4.13-12.64t-11.25-4.4q-7.12,0-11.3,4.4T434.68,79.6v34.31H422V31.47h12.7V59.66a21.23,21.23,0,0,1,8.19-6,27.35,27.35,0,0,1,10.86-2.11,25.79,25.79,0,0,1,12.51,2.98Z" fill="#fff"/>
      <path id="Path_30162" data-name="Path 30162" d="M498.51,111a28.4,28.4,0,0,1-11-11.14,33.64,33.64,0,0,1-4-16.66,32.91,32.91,0,0,1,4.12-16.59,28.49,28.49,0,0,1,11.25-11.14,34.48,34.48,0,0,1,31.86,0A28.45,28.45,0,0,1,542,66.57a33,33,0,0,1,4.12,16.59,32.181,32.181,0,0,1-4.24,16.6A29.28,29.28,0,0,1,530.31,111a33.17,33.17,0,0,1-16.09,4,31.39,31.39,0,0,1-15.71-4Zm24.9-9.41a17.8,17.8,0,0,0,7-7A22.61,22.61,0,0,0,533,83.16a23,23,0,0,0-2.56-11.3,17.35,17.35,0,0,0-6.79-7,18.71,18.71,0,0,0-9.14-2.33,18.38,18.38,0,0,0-9.08,2.33,16.81,16.81,0,0,0-6.63,7,23.92,23.92,0,0,0-2.45,11.3q0,9.93,5.07,15.32a16.73,16.73,0,0,0,12.76,5.41,18.92,18.92,0,0,0,9.23-2.34Z" fill="#fff"/>
      <path id="Path_30163" data-name="Path 30163" d="M571.25,54.42a26.91,26.91,0,0,1,12.59-2.89,28.11,28.11,0,0,1,14.65,3.95,27.81,27.81,0,0,1,10.42,11.09,34.41,34.41,0,0,1,3.78,16.37,35.46,35.46,0,0,1-3.78,16.55,28.36,28.36,0,0,1-10.42,11.36,27.47,27.47,0,0,1-14.65,4.06,26.57,26.57,0,0,1-12.48-2.84,27.89,27.89,0,0,1-8.91-7.07v38.1h-12.7V52.53h12.7v9a26,26,0,0,1,8.8-7.11ZM597.15,72a17.93,17.93,0,0,0-6.9-7,18.53,18.53,0,0,0-9.19-2.39,17.986,17.986,0,0,0-15.97,9.52,22.15,22.15,0,0,0-2.62,11,22.51,22.51,0,0,0,2.62,11.09,18.08,18.08,0,0,0,25.18,7.13,18.37,18.37,0,0,0,6.9-7.3,22.789,22.789,0,0,0,2.62-11.14A21.85,21.85,0,0,0,597.15,72Z" fill="#fff"/>
    </g>
  </g>
</svg>
