<svg xmlns="http://www.w3.org/2000/svg" viewBox="0 0 612.69 150.8"><defs><style>.cls-1,.cls-3{fill:none;stroke-miterlimit:10;}.cls-1{stroke:#1a222a;stroke-width:6.33px;}.cls-2{fill:#f06724;}.cls-3{stroke:#f16623;stroke-width:6.34px;}.cls-4{opacity:0.25;}.cls-5{fill:#ea7926;}.cls-6{fill:#292728;}</style></defs><g id="Layer_2" data-name="Layer 2"><g id="Layer_1-2" data-name="Layer 1"><line class="cls-1" x1="40.73" y1="12.72" x2="60.01" y2="73.8"/><circle class="cls-2" cx="40.24" cy="10.47" r="10.47"/><path class="cls-3" d="M108.17,74.66c0-21.27-14.9-38.52-33.28-38.52S41.61,53.39,41.61,74.66"/><path class="cls-3" d="M148.83,74.8A72.83,72.83,0,0,1,14.41,113.68a74.19,74.19,0,0,1-4.06-7.3A72.63,72.63,0,0,1,3.17,74.8Z"/><line class="cls-1" x1="64.53" y1="87.91" x2="75.22" y2="121.78"/><g class="cls-4"><rect class="cls-5" x="126.77" y="74.66" width="22.06" height="6.24" rx="3.12"/><rect class="cls-5" x="97.07" y="74.66" width="22.06" height="6.24" rx="3.12"/><rect class="cls-5" x="97.07" y="94.27" width="22.06" height="6.24" rx="3.12"/><rect class="cls-5" x="97.07" y="113.88" width="22.06" height="6.24" rx="3.12"/><rect class="cls-5" x="82.21" y="84.47" width="22.06" height="6.24" rx="3.12"/><path class="cls-5" d="M118,134.22a71.44,71.44,0,0,1-9.08,5.5h-8.76a3.12,3.12,0,0,1,0-6.24H116A3.11,3.11,0,0,1,118,134.22Z"/><rect class="cls-5" x="111.92" y="84.47" width="22.06" height="6.24" rx="3.12"/><path class="cls-5" d="M129.91,123.68a72.39,72.39,0,0,1-6.39,6.24H115a3.12,3.12,0,0,1,0-6.24Z"/><rect class="cls-5" x="82.21" y="123.68" width="22.06" height="6.24" rx="3.12"/><path class="cls-5" d="M100.72,143.28a72.22,72.22,0,0,1-18.36,4.06,2.89,2.89,0,0,1-.15-.94,3.12,3.12,0,0,1,3.12-3.12Z"/><path class="cls-5" d="M148.17,84.49c-.28,2.1-.65,4.18-1.11,6.22h-2.32a3.12,3.12,0,0,1,0-6.24h3A2.36,2.36,0,0,1,148.17,84.49Z"/><path class="cls-5" d="M146.11,94.45c-.06.22-.12.44-.19.66s-.13.45-.2.67-.16.53-.24.8-.25.78-.38,1.17c-.22.65-.44,1.3-.68,1.94l-.3.82H129.89a3.12,3.12,0,1,1,0-6.24h15.25A3.09,3.09,0,0,1,146.11,94.45Z"/><path class="cls-5" d="M137.41,113.88a72.6,72.6,0,0,1-4.46,6.23h-3.06a3.12,3.12,0,1,1,0-6.23h7.52Z"/><rect class="cls-5" x="111.92" y="104.07" width="22.06" height="6.24" rx="3.12"/><rect class="cls-5" x="82.21" y="104.08" width="22.06" height="6.24" rx="3.12"/></g><line class="cls-1" x1="109.06" y1="12.72" x2="82.88" y2="95.61"/><circle class="cls-2" cx="109.54" cy="10.47" r="10.47"/><path class="cls-2" d="M220.62,40.05A35.2,35.2,0,0,1,234.94,54a40.65,40.65,0,0,1,5,20.27,41.09,41.09,0,0,1-5,20.28,36.1,36.1,0,0,1-14.32,14.2A43.82,43.82,0,0,1,199,113.91H166.09V35H199A45,45,0,0,1,220.62,40.05ZM210,87.29q4.91-4.58,4.91-13t-4.91-13q-4.89-4.57-13.25-4.57h-5.91v35.2h5.91Q205.09,91.85,210,87.29Z"/><path class="cls-2" d="M271.37,35v78.87H246.63V35Z"/><path class="cls-2" d="M334.81,40.05A35.18,35.18,0,0,1,349.12,54a40.55,40.55,0,0,1,5,20.27,41,41,0,0,1-5,20.28,36.07,36.07,0,0,1-14.31,14.2,43.86,43.86,0,0,1-21.67,5.18H280.28V35h32.86A45,45,0,0,1,334.81,40.05ZM324.17,87.29q4.9-4.58,4.9-13t-4.9-13q-4.91-4.57-13.26-4.57H305v35.2h5.9Q319.27,91.85,324.17,87.29Z"/><path class="cls-6" d="M372.85,112a23,23,0,0,1-9.8-7.74,19.64,19.64,0,0,1-3.57-11.7h13.59a12.32,12.32,0,0,0,4,8.25q3.51,3.23,9.86,3.23,6.57,0,10.25-3.18a10.3,10.3,0,0,0,3.67-8.19,9,9,0,0,0-2.28-6.35,15.31,15.31,0,0,0-5.68-3.78,86.44,86.44,0,0,0-9.42-2.9,87.94,87.94,0,0,1-12.31-4.07,20.39,20.39,0,0,1-8.07-6.4q-3.35-4.35-3.34-11.59a20.56,20.56,0,0,1,3.34-11.69,21.31,21.31,0,0,1,9.36-7.69,34,34,0,0,1,13.92-2.68q11.25,0,18.44,5.63t8,15.43h-14a10.19,10.19,0,0,0-4-7.24q-3.68-3-9.7-3a13.72,13.72,0,0,0-8.91,2.79c-2.3,1.85-3.45,4.53-3.45,8A8.16,8.16,0,0,0,374.8,63a15.51,15.51,0,0,0,5.52,3.62,85.56,85.56,0,0,0,9.13,2.89A95.4,95.4,0,0,1,402,73.7a20.92,20.92,0,0,1,8.25,6.51c2.26,2.94,3.39,6.85,3.39,11.76a21.11,21.11,0,0,1-3.17,11.14,23,23,0,0,1-9.25,8.41,30.57,30.57,0,0,1-14.31,3.17A34.68,34.68,0,0,1,372.85,112Z"/><path class="cls-6" d="M466.26,54.53A21.43,21.43,0,0,1,475,63.45a29.69,29.69,0,0,1,3.17,14.26v36.2H465.54V79.6q0-8.25-4.13-12.64t-11.25-4.4q-7.12,0-11.3,4.4T434.68,79.6v34.31H422V31.47h12.7V59.66a21.23,21.23,0,0,1,8.19-6,27.35,27.35,0,0,1,10.86-2.11A25.79,25.79,0,0,1,466.26,54.53Z"/><path class="cls-6" d="M498.51,111a28.4,28.4,0,0,1-11-11.14,33.64,33.64,0,0,1-4-16.66,32.91,32.91,0,0,1,4.12-16.59,28.49,28.49,0,0,1,11.25-11.14,34.48,34.48,0,0,1,31.86,0A28.45,28.45,0,0,1,542,66.57a33,33,0,0,1,4.12,16.59,32.18,32.18,0,0,1-4.24,16.6A29.28,29.28,0,0,1,530.31,111a33.17,33.17,0,0,1-16.09,4A31.39,31.39,0,0,1,498.51,111Zm24.9-9.41a17.8,17.8,0,0,0,7-7A22.61,22.61,0,0,0,533,83.16a23,23,0,0,0-2.56-11.3,17.35,17.35,0,0,0-6.79-7,18.71,18.71,0,0,0-9.14-2.33,18.38,18.38,0,0,0-9.08,2.33,16.81,16.81,0,0,0-6.63,7,23.92,23.92,0,0,0-2.45,11.3q0,9.93,5.07,15.32a16.73,16.73,0,0,0,12.76,5.41A18.92,18.92,0,0,0,523.41,101.55Z"/><path class="cls-6" d="M571.25,54.42a26.91,26.91,0,0,1,12.59-2.89,28.11,28.11,0,0,1,14.65,3.95,27.81,27.81,0,0,1,10.42,11.09,34.41,34.41,0,0,1,3.78,16.37,35.46,35.46,0,0,1-3.78,16.55,28.36,28.36,0,0,1-10.42,11.36,27.47,27.47,0,0,1-14.65,4.06,26.57,26.57,0,0,1-12.48-2.84,27.89,27.89,0,0,1-8.91-7.07v38.1h-12.7V52.53h12.7v9A26,26,0,0,1,571.25,54.42ZM597.15,72a17.93,17.93,0,0,0-6.9-7,18.53,18.53,0,0,0-9.19-2.39A18,18,0,0,0,572,65a18.18,18.18,0,0,0-6.91,7.13,22.15,22.15,0,0,0-2.62,11,22.51,22.51,0,0,0,2.62,11.09,18.08,18.08,0,0,0,25.18,7.13,18.37,18.37,0,0,0,6.9-7.3,22.79,22.79,0,0,0,2.62-11.14A21.85,21.85,0,0,0,597.15,72Z"/></g></g></svg>