<svg xmlns="http://www.w3.org/2000/svg" width="175" height="34" viewBox="0 0 175 34">
  <g id="zimmerman" transform="translate(-8.503 -79.038)">
    <path id="Path_5" data-name="Path 5" d="M21.617,85.722h9.231l-4.484,20.63h-9.23l4.483-20.63Zm7.356,20.63h8.7L39.4,98.4c3.293-.1,4.412.259,4.06,1.874l-1.321,6.082H50.8l1.452-6.681c.192-.887.666-3.071-3.126-4.058,3.855-1.015,4.691-3.151,5.015-4.634.751-3.461-2.177-5.257-6.686-5.257h-14l-4.481,20.63Zm11.4-12.438.973-4.472c2.5.024,4.484-.076,4.034,1.994-.583,2.677-1.555,2.426-5.007,2.478Z" transform="translate(0 0)" fill="#f16522" fill-rule="evenodd"/>
    <path id="Path_6" data-name="Path 6" d="M46.276,107.833a37.566,37.566,0,0,1-7.064,2.771c-12.616,3.538-24.193-.115-25.859-8.159-.956-4.624,1.57-9.684,6.278-13.829l.442-2.055c-7.89,4.953-12.566,11.5-11.39,17.194,1.732,8.362,15.455,11.688,30.649,7.427a52.119,52.119,0,0,0,8.807-3.349Zm17.436-19.51c-1.732-8.365-15.454-11.691-30.651-7.429a51.931,51.931,0,0,0-8.808,3.348h1.862a37.623,37.623,0,0,1,7.064-2.771c12.617-3.538,24.193.117,25.86,8.163.957,4.614-1.562,9.667-6.254,13.807l-.444,2.061c7.881-4.949,12.548-11.494,11.371-17.177Z" transform="translate(0 0)" fill="#f16522" fill-rule="evenodd"/>
    <path id="Path_7" data-name="Path 7" d="M69.006,103.736l5.912-11.209H69.257V88.934h10.3v3.274l-5.844,11.3h5.844v3.523H69.006v-3.295Zm58.25-5.82h-1.979c0-1.389,0-2.8,1.045-2.8C127.324,95.119,127.256,96.527,127.256,97.916Zm3.863-1.137c0-2.82-1.521-4.413-4.773-4.413-3.273,0-4.865,1.773-4.865,4.684v5.912c0,2.955,1.66,4.434,4.887,4.434,5,0,4.752-3.592,4.752-5.686h-3.842v1.729c0,.184,0,1.3-.885,1.3-.979,0-.979-1.113-.979-2.365v-1.842h5.7v-3.75ZM81.3,88.934h4.07v2.933H81.3Zm0,3.8h4.07v14.3H81.3v-14.3Zm5.86,0h3.8v1.909a3.16,3.16,0,0,1,3.093-2.274c2.045,0,2.614,1.206,2.568,2.568a3.124,3.124,0,0,1,3.207-2.568c2.887,0,2.887,2.774,2.887,3.319v11.346h-4v-9.32c0-.773,0-1.865-.863-1.865-.956,0-.956,1.3-.956,2.205v8.98H92.911V97.938c0-1.113,0-2.046-.818-2.046-.978,0-.978,1.16-.978,2.16v8.98H87.158v-14.3h0Zm17.316,0h3.8v1.909a3.158,3.158,0,0,1,3.092-2.274c2.047,0,2.615,1.206,2.57,2.568a3.121,3.121,0,0,1,3.205-2.568c2.889,0,2.889,2.774,2.889,3.319v11.346h-4v-9.32c0-.773,0-1.865-.863-1.865-.955,0-.955,1.3-.955,2.205v8.98h-3.979V97.938c0-1.113,0-2.046-.818-2.046-.979,0-.979,1.16-.979,2.16v8.98h-3.955v-14.3Zm36.367,0h3.8v1.909a3.16,3.16,0,0,1,3.092-2.274c2.049,0,2.617,1.206,2.57,2.568a3.123,3.123,0,0,1,3.205-2.568c2.889,0,2.889,2.774,2.889,3.319v11.346h-4v-9.32c0-.773,0-1.865-.863-1.865-.955,0-.955,1.3-.955,2.205v8.98H146.6V97.938c0-1.113,0-2.046-.818-2.046-.979,0-.979,1.16-.979,2.16v8.98h-3.957v-14.3Zm28.4,0h3.842V94.6a2.859,2.859,0,0,1,3-2.229,2.772,2.772,0,0,1,2.889,3.093v11.572h-4.094V97.393c0-.658,0-1.524-.705-1.524-.908,0-.908,1.411-.908,2.774v8.389h-4.023v-14.3Zm-36.41,0h3.842v2.341c1.387-2.523.84-2.205,2.773-2.706v4.866c-1.023-.066-2.57-.066-2.57,2.229v7.57h-4.045v-14.3Zm29,9.071c0-1.125.877-1.451,1.65-2v2.477c0,1.275-.1,1.826-.924,1.826a.7.7,0,0,1-.727-.75V101.8h0Zm1.65,5.228h3.955V96.449c0-2.878-2.4-3.9-4.779-3.9s-4.779,1.025-4.779,3.9v1h3.953V96.2c0-.575.176-1.052.826-1.052s.824.477.824,1.052c0,2.651-5.6,2.2-5.6,5.954v2.129a2.609,2.609,0,0,0,2.777,2.926,2.8,2.8,0,0,0,2.777-1.85h.049v1.674h0Zm19.131-.195a1.43,1.43,0,1,1,1.379-1.432A1.379,1.379,0,0,1,182.611,106.836Zm0,.217a1.645,1.645,0,1,0-1.65-1.648A1.645,1.645,0,0,0,182.611,107.053Zm.264-1.576c.326-.008.578-.143.578-.5,0-.307-.166-.486-.652-.486H182v1.836h.227v-.848h.412l.525.848h.27l-.557-.848-.65-.176v-.652h.523c.227,0,.461.033.461.32,0,.375-.383.332-.643.332h-.342l.651.176Z" transform="translate(-0.748 -0.415)" fill-rule="evenodd"/>
  </g>
</svg>
