<svg xmlns="http://www.w3.org/2000/svg" width="152" height="150.914" viewBox="0 0 152 150.914">
  <g id="Layer_2" data-name="Layer 2" transform="translate(0)">
    <g id="Layer_1" data-name="Layer 1">
      <line id="Line_47" data-name="Line 47" x2="19.28" y2="61.08" transform="translate(40.73 12.72)" fill="none" stroke="#1a222a" stroke-miterlimit="10" stroke-width="6.33"/>
      <circle id="Ellipse_131" data-name="Ellipse 131" cx="10.47" cy="10.47" r="10.47" transform="translate(29.77 0)" fill="#f06724"/>
      <path id="Path_30149" data-name="Path 30149" d="M108.17,74.66c0-21.27-14.9-38.52-33.28-38.52S41.61,53.39,41.61,74.66" fill="none" stroke="#f16623" stroke-miterlimit="10" stroke-width="6.34"/>
      <path id="Path_30150" data-name="Path 30150" d="M148.83,74.8A72.83,72.83,0,0,1,14.41,113.68a74.191,74.191,0,0,1-4.06-7.3A72.63,72.63,0,0,1,3.17,74.8Z" fill="none" stroke="#f16623" stroke-miterlimit="10" stroke-width="6.34"/>
      <line id="Line_48" data-name="Line 48" x2="10.69" y2="33.87" transform="translate(64.53 87.91)" fill="none" stroke="#1a222a" stroke-miterlimit="10" stroke-width="6.33"/>
      <g id="Group_2832" data-name="Group 2832" opacity="0.25">
        <rect id="Rectangle_2408" data-name="Rectangle 2408" width="22.06" height="6.24" rx="3.12" transform="translate(126.77 74.66)" fill="#ea7926"/>
        <rect id="Rectangle_2409" data-name="Rectangle 2409" width="22.06" height="6.24" rx="3.12" transform="translate(97.07 74.66)" fill="#ea7926"/>
        <rect id="Rectangle_2410" data-name="Rectangle 2410" width="22.06" height="6.24" rx="3.12" transform="translate(97.07 94.27)" fill="#ea7926"/>
        <rect id="Rectangle_2411" data-name="Rectangle 2411" width="22.06" height="6.24" rx="3.12" transform="translate(97.07 113.88)" fill="#ea7926"/>
        <rect id="Rectangle_2412" data-name="Rectangle 2412" width="22.06" height="6.24" rx="3.12" transform="translate(82.21 84.47)" fill="#ea7926"/>
        <path id="Path_30151" data-name="Path 30151" d="M118,134.22a71.444,71.444,0,0,1-9.08,5.5h-8.76a3.12,3.12,0,1,1,0-6.24H116A3.11,3.11,0,0,1,118,134.22Z" fill="#ea7926"/>
        <rect id="Rectangle_2413" data-name="Rectangle 2413" width="22.06" height="6.24" rx="3.12" transform="translate(111.92 84.47)" fill="#ea7926"/>
        <path id="Path_30152" data-name="Path 30152" d="M129.91,123.68a72.391,72.391,0,0,1-6.39,6.24H115a3.12,3.12,0,1,1,0-6.24Z" fill="#ea7926"/>
        <rect id="Rectangle_2414" data-name="Rectangle 2414" width="22.06" height="6.24" rx="3.12" transform="translate(82.21 123.68)" fill="#ea7926"/>
        <path id="Path_30153" data-name="Path 30153" d="M100.72,143.28a72.22,72.22,0,0,1-18.36,4.06,2.89,2.89,0,0,1-.15-.94,3.12,3.12,0,0,1,3.12-3.12Z" fill="#ea7926"/>
        <path id="Path_30154" data-name="Path 30154" d="M148.17,84.49c-.28,2.1-.65,4.18-1.11,6.22h-2.32a3.12,3.12,0,0,1,0-6.24h3a2.359,2.359,0,0,1,.43.02Z" fill="#ea7926"/>
        <path id="Path_30155" data-name="Path 30155" d="M146.11,94.45c-.06.22-.12.44-.19.66s-.13.45-.2.67-.16.53-.24.8-.25.78-.38,1.17c-.22.65-.44,1.3-.68,1.94l-.3.82H129.89a3.12,3.12,0,0,1,0-6.24h15.25A3.09,3.09,0,0,1,146.11,94.45Z" fill="#ea7926"/>
        <path id="Path_30156" data-name="Path 30156" d="M137.41,113.88a72.6,72.6,0,0,1-4.46,6.23h-3.06a3.12,3.12,0,1,1,0-6.23Z" fill="#ea7926"/>
        <rect id="Rectangle_2415" data-name="Rectangle 2415" width="22.06" height="6.24" rx="3.12" transform="translate(111.92 104.07)" fill="#ea7926"/>
        <rect id="Rectangle_2416" data-name="Rectangle 2416" width="22.06" height="6.24" rx="3.12" transform="translate(82.21 104.08)" fill="#ea7926"/>
      </g>
      <line id="Line_49" data-name="Line 49" x1="26.18" y2="82.89" transform="translate(82.88 12.72)" fill="none" stroke="#1a222a" stroke-miterlimit="10" stroke-width="6.33"/>
      <circle id="Ellipse_132" data-name="Ellipse 132" cx="10.47" cy="10.47" r="10.47" transform="translate(99.07 0)" fill="#f06724"/>
    </g>
  </g>
</svg>
